<svg width="392" height="392" viewBox="0 0 392 392" fill="none" xmlns="http://www.w3.org/2000/svg">
<g clip-path="url(#clip0_501_2)">
<path d="M27.06 292.89C27.06 292.29 26.97 291.69 26.97 291.09C26.97 227.643 26.97 164.197 26.97 100.75C26.8903 100.102 27.0239 99.4464 27.3505 98.8816C27.6771 98.3167 28.179 97.8738 28.78 97.6199C31.78 95.9999 34.52 93.8299 37.59 92.3399C39.54 91.3399 41.24 90.1499 43.05 89.0599C45.77 87.4099 48.72 86.1499 51.52 84.6299C53.33 83.6299 55.02 82.4399 56.8 81.4099C59.39 79.9199 62.02 78.5099 64.62 77.0399C66.31 76.0399 67.98 75.0999 69.62 74.1199C72.62 72.3599 75.62 70.6199 78.62 68.8199C83.62 65.8199 88.62 62.7499 93.62 59.7399C94.3496 59.3917 95.1052 59.1008 95.88 58.8699V156.81C97.94 155.65 99.68 154.7 101.4 153.71C104.03 152.19 106.63 150.62 109.27 149.13C112.18 147.5 115.15 146 118.04 144.33C120.38 142.98 122.61 141.43 124.95 140.06C127.88 138.35 130.89 136.78 133.82 135.06C136.75 133.34 139.75 131.35 142.82 129.62C145.34 128.18 147.99 126.99 150.54 125.62C152.27 124.67 153.9 123.53 155.61 122.55C158.15 121.08 160.74 119.7 163.27 118.21C164.58 117.45 165.77 116.48 167.07 115.7C168.79 114.7 170.56 113.7 172.31 112.78C174.06 111.86 175.89 110.78 177.66 109.78C179.81 108.57 181.96 107.36 184.08 106.1C187.54 104.03 190.92 101.84 194.42 99.8399C197.51 98.0699 200.75 96.5599 203.83 94.7899C206 93.5699 208 91.9999 210.16 90.6999C212.16 89.5299 214.29 88.6099 216.32 87.5199C217.32 86.9799 218.32 86.2799 219.26 85.6799C221.4 84.3399 223.53 82.9699 225.72 81.6799C226.91 80.9999 228.23 80.5499 229.47 79.9499C229.96 79.7099 230.36 79.2899 230.84 79.0199C233.64 77.4199 236.45 75.8499 239.26 74.2599C241.53 72.9799 243.8 71.6999 246.06 70.3999C249.13 68.6299 252.2 66.8699 255.25 65.0599C256.76 64.1699 258.19 63.1199 259.72 62.2499C263.07 60.3599 266.49 58.5799 269.83 56.6599C271.77 55.5599 273.57 54.2299 275.49 53.0999C277.21 52.0999 278.98 51.0999 280.79 50.2699C281.064 50.1492 281.36 50.0869 281.66 50.0869C281.96 50.0869 282.256 50.1492 282.53 50.2699C285.53 51.8999 288.38 53.6699 291.33 55.3399C293.81 56.7499 296.33 58.0699 298.84 59.4799C300.02 60.1599 301.12 61.0099 302.31 61.6799C304.91 63.1699 307.56 64.5699 310.17 66.0399C311.91 67.0399 313.61 68.0399 315.35 69.0399C318.02 70.5599 320.73 72.0399 323.35 73.5599C325.03 74.5599 326.64 75.6199 328.35 76.5599C331.01 78.0699 333.72 79.4699 336.35 80.9999C338.35 82.1399 340.15 83.4699 342.09 84.6299C344.54 86.0799 347.04 87.4499 350.04 89.1599C348.32 90.2399 346.89 91.1599 345.42 92.0699C341.89 94.1699 338.42 96.2699 334.81 98.2999C332.28 99.7399 329.67 101.04 327.14 102.47C325.39 103.47 323.72 104.59 321.98 105.58C318.88 107.34 315.74 109.03 312.64 110.78C310.85 111.78 309.11 112.89 307.32 113.91C304.2 115.69 301.04 117.41 297.93 119.22C294.57 121.22 291.25 123.22 287.93 125.22C284.21 127.46 280.54 129.8 276.77 131.95C273.66 133.71 270.39 135.18 267.27 136.95C263.95 138.82 260.76 140.95 257.45 142.84C254.14 144.73 251.03 146.32 247.84 148.1C246.75 148.71 245.73 149.46 244.66 150.1C242.66 151.3 240.72 152.47 238.75 153.65C236.27 155.13 233.81 156.65 231.3 158.07C229.81 158.92 228.19 159.55 226.71 160.42C223.88 162.09 221.14 163.93 218.29 165.58C214.83 167.58 211.29 169.41 207.8 171.37C204.8 173.05 201.95 174.83 199 176.52C196.27 178.09 193.51 179.6 190.37 181.35C191.29 182.138 192.262 182.863 193.28 183.52C196.75 185.46 200.28 187.27 203.77 189.2C204.65 189.68 205.34 190.51 206.21 191.02C209.3 192.85 212.4 194.66 215.55 196.37C218.13 197.78 220.81 198.99 223.39 200.37C224.32 200.87 225.07 201.69 225.98 202.23C229.98 204.65 234.04 207.05 238.11 209.39C240.55 210.79 243.11 212.02 245.52 213.39C248.59 215.15 251.52 217.07 254.65 218.8C257.2 220.22 259.88 221.41 262.43 222.8C264.63 224.04 266.69 225.51 268.86 226.8C271.38 228.29 273.98 229.64 276.5 231.12C279.85 233.07 283.16 235.12 286.5 237.06C287.03 237.38 287.62 237.61 288.29 237.93C288.7 239.74 286.77 239.78 285.94 240.3C282.71 242.3 279.22 243.96 275.94 245.88C272.84 247.67 269.89 249.71 266.79 251.5C262.08 254.22 257.3 256.81 252.55 259.5C249.69 261.09 246.83 262.67 244 264.3C241.17 265.93 238.19 267.77 235.27 269.47C232.15 271.29 229.017 273.083 225.87 274.85C224.5 275.62 222.87 276.09 221.73 277.1C219.93 278.69 218.78 277.1 217.52 276.52C215.45 275.52 213.52 274.24 211.52 273.07C209.74 272.07 207.98 270.95 206.18 269.93C204.18 268.78 202.11 267.72 200.11 266.55C198.36 265.55 196.7 264.36 194.95 263.34C192.47 261.9 189.95 260.56 187.45 259.13C185.83 258.2 184.25 257.18 182.64 256.21C180.21 254.75 177.81 253.21 175.33 251.86C172.85 250.51 170.03 249.31 167.49 247.86C164.14 245.86 160.93 243.69 157.6 241.68C155.39 240.35 153.07 239.2 150.83 237.92C146.12 235.23 141.45 232.48 136.74 229.79C133.09 227.7 129.39 225.7 125.74 223.61C123.74 222.44 121.74 221.11 119.74 219.93C117.1 218.4 114.4 216.93 111.74 215.45C109.3 214.07 106.85 212.69 104.43 211.26C102.01 209.83 99.7 208.39 97.32 206.99C96.9144 206.87 96.4929 206.813 96.07 206.82V331.47C94.37 332.84 93.24 331.41 92.2 330.86C87.92 328.63 83.72 326.23 79.56 323.77C74.94 321.03 70.42 318.13 65.82 315.37C64.17 314.37 62.39 313.58 60.7 312.64C58.32 311.32 55.98 309.93 53.6 308.64C50.91 307.16 48.16 305.79 45.51 304.25C43.61 303.16 41.85 301.83 39.99 300.67C38.13 299.51 36.41 298.54 34.6 297.51C32.36 296.26 30.09 295.04 27.84 293.81L27.06 292.89Z" fill="#2D337A"/>
<path d="M111.22 233.94C114.65 236.06 118.06 238.21 121.52 240.28C122.85 241.07 124.33 241.6 125.69 242.35C127.05 243.1 128.38 244.02 129.75 244.82C131.12 245.62 132.36 246.26 133.64 247.02C136.75 248.84 139.8 250.75 142.95 252.5C145.52 253.93 148.22 255.12 150.79 256.5C152.49 257.43 154.04 258.62 155.72 259.59C158.27 261.07 160.89 262.44 163.45 263.91C166.31 265.55 169.13 267.24 171.98 268.91C173.37 269.72 174.75 270.55 176.17 271.3C177.59 272.05 178.36 272.68 178.33 274.48C178.2 282.48 178.33 290.54 178.2 298.56C178.2 300.86 179.26 301.97 180.91 302.94C182.56 303.91 184.23 304.75 185.91 305.72C188.91 307.51 191.91 309.38 194.91 311.15C195.132 311.279 195.38 311.356 195.636 311.377C195.892 311.398 196.15 311.361 196.39 311.27C199.69 309.27 202.91 307.17 206.2 305.17C207.48 304.39 208.89 303.81 210.2 303.09C213.73 301.14 217.27 299.22 220.73 297.17C223.87 295.32 226.89 293.27 230.02 291.38C231.92 290.23 233.94 289.27 235.87 288.16C237.8 287.05 239.87 285.64 241.93 284.5C244.39 283.13 246.98 281.98 249.41 280.57C252.28 278.91 255.04 277.05 257.87 275.33C259.16 274.54 260.51 273.87 261.87 273.16C263.74 272.16 265.65 271.24 267.5 270.16C269.35 269.08 271.3 267.9 273.18 266.74C275.06 265.58 277.1 264.18 279.18 263.04C282.27 261.32 285.48 259.81 288.55 258.04C290.935 256.671 293.239 255.166 295.45 253.53C296.118 252.924 296.52 252.08 296.57 251.18C296.7 248.18 296.57 245.26 296.57 242.3C296.57 234.57 296.57 226.84 296.57 219.11C296.432 218.106 296.174 217.122 295.8 216.18C294.18 217.25 292.92 218.18 291.61 218.93C290.66 219.51 289.61 219.93 288.61 220.48C288.118 220.815 287.526 220.97 286.933 220.917C286.34 220.864 285.784 220.607 285.36 220.19C283.74 219.064 282.023 218.083 280.23 217.26L276.07 215C273.47 213.55 270.85 212.14 268.27 210.65C266.5 209.65 264.8 208.45 263.03 207.41C261.1 206.28 259.09 205.27 257.17 204.11C255.25 202.95 253.55 201.65 251.67 200.54C249.79 199.43 248.01 198.67 246.21 197.67C243.7 196.27 241.21 194.79 238.74 193.36C236.83 192.26 234.9 191.19 232.99 190.1C231.35 189.17 229.73 188.21 228.09 187.28L221.55 183.58C220.84 183.17 220.14 182.72 219.27 182.19V181.25C221.07 180.13 222.73 179.07 224.42 178.04C226.42 176.8 228.42 175.53 230.53 174.36C232.33 173.36 234.23 172.49 236.03 171.46C239.16 169.67 242.23 167.78 245.35 165.98C248.2 164.34 251.1 162.8 253.94 161.16C256.49 159.68 258.94 158.05 261.51 156.61C265.57 154.32 269.71 152.18 273.78 149.89C277.13 148 280.4 145.96 283.78 144.05C286.4 142.55 289.12 141.2 291.73 139.66C294.06 138.29 296.26 136.66 298.59 135.3C300.52 134.16 302.59 133.24 304.51 132.14C306.3 131.14 308.01 129.98 309.79 128.96C312.33 127.51 314.91 126.13 317.45 124.69C318.45 124.11 319.45 123.42 320.45 122.82C322.54 121.57 324.64 120.32 326.77 119.13C329.05 117.85 331.43 116.72 333.68 115.38C335.93 114.04 338.27 112.28 340.68 110.9C343.09 109.52 345.84 108.35 348.35 106.96C350.86 105.57 353.01 104.1 355.35 102.7C358.07 101.06 360.81 99.4699 363.56 97.8799C363.935 97.7552 364.325 97.6845 364.72 97.6699V293.28C363.17 294.14 361.72 294.9 360.33 295.71C358.94 296.52 357.33 297.51 355.81 298.41C352.9 300.12 350 301.85 347.07 303.53C345.07 304.66 343.07 305.67 341.07 306.84C338.68 308.26 336.36 309.84 333.98 311.25C332.74 312 331.4 312.55 330.16 313.25C327.62 314.75 325.16 316.4 322.59 317.82C319.42 319.57 316.15 321.1 312.96 322.82C311.36 323.68 309.86 324.74 308.29 325.67C304.72 327.76 301.11 329.79 297.56 331.92C294.66 333.67 291.88 335.62 288.94 337.28C285.79 339.07 282.48 340.57 279.29 342.28C277.56 343.2 275.96 344.34 274.29 345.34C271.88 346.78 269.44 348.17 267.03 349.61C263.47 351.73 259.94 353.9 256.36 356C254.59 357 252.73 357.94 250.94 359C248.45 360.4 246 361.88 243.5 363.28C242.79 363.67 241.94 363.82 241.24 364.22C239.31 365.33 237.43 366.53 235.5 367.66C232.37 369.48 229.2 371.26 226.07 373.1C222.49 375.21 218.95 377.38 215.37 379.49C211.79 381.6 208.06 383.79 204.37 385.88C201.89 387.29 199.31 388.52 196.84 389.95C195.44 390.76 194.32 389.95 193.3 389.43C190.3 387.82 187.36 386.03 184.42 384.28C181.63 382.62 178.88 380.9 176.07 379.28C172.96 377.48 169.77 375.81 166.66 374C164.76 372.9 162.98 371.59 161.1 370.46C159.45 369.46 157.72 368.59 156.03 367.67C154.14 366.67 152.23 365.67 150.37 364.59C148.51 363.51 146.58 362.26 144.66 361.15C142.14 359.68 139.6 358.26 137.05 356.84C134.5 355.42 131.71 353.94 129.05 352.44C127.36 351.49 125.73 350.44 124.05 349.44L116.84 345.17L111.92 342.28L110.07 341.28V239.28C110.02 237.893 110.04 236.505 110.13 235.12C110.16 234.64 110.83 234.31 111.22 233.94Z" fill="#B92225"/>
<path d="M111 129.45L110.21 129.55C110.15 128.83 110.04 128.11 110.04 127.39C110.04 102.53 110.04 77.6665 110.04 52.7998C110.04 52.1898 110.04 51.5898 109.97 50.9898L111.09 49.9898L111.95 49.2498C112.95 48.6698 113.87 48.0598 114.85 47.5098C116.65 46.5098 118.48 45.5698 120.26 44.5098C122.81 43.0398 125.26 41.4598 127.85 40.0198C130.91 38.3098 134.06 36.7798 137.09 35.0198C139.96 33.3698 142.71 31.5098 145.56 29.8198C147.43 28.7098 149.41 27.7598 151.31 26.6998C155.79 24.1798 160.257 21.6465 164.71 19.0998C168.41 16.9798 172.1 14.8498 175.71 12.6698C179.13 10.6698 182.49 8.49984 185.92 6.47984C187.76 5.38984 189.69 4.47984 191.54 3.47984C193.09 2.59984 194.54 1.59984 196.12 0.739839C196.319 0.664003 196.531 0.631893 196.744 0.645699C196.956 0.659504 197.163 0.7189 197.35 0.819839C199.61 2.19984 201.79 3.72984 204.1 5.05984C207.62 7.05984 211.24 8.93984 214.77 10.9498C217.62 12.5698 220.38 14.3498 223.21 15.9498C226.3 17.7298 229.44 19.3898 232.53 21.1698C234.35 22.2198 236.07 23.4398 237.89 24.4898C240.32 25.8898 242.79 27.1998 245.25 28.5398C246.15 29.0298 247.1 29.4398 247.99 29.9598C249.83 31.0332 251.647 32.1332 253.44 33.2598C254.5 33.9298 255.44 34.7798 256.51 35.3798C259.32 36.9398 262.17 38.3798 265.51 40.1498C262.66 41.7898 260.34 43.1498 258 44.4798C256.62 45.2698 255.23 46.0198 253.84 46.7998C251.32 48.1998 248.84 49.5898 246.3 51.0298C245.06 51.7398 243.9 52.5698 242.67 53.2998C240.3 54.7298 237.9 56.1198 235.52 57.5298C234.1 58.3798 232.7 59.2598 231.27 60.0898C230.09 60.7798 228.9 61.4198 227.71 62.0898C224.65 63.7398 221.55 65.3098 218.55 67.0898C215.15 69.0898 211.9 71.2698 208.49 73.2298C205.92 74.6998 203.14 75.8398 200.57 77.3098C198.28 78.6198 196.19 80.3098 193.93 81.6098C192.35 82.5498 190.59 83.1898 188.98 84.0798C187.37 84.9698 186.1 85.9098 184.66 86.8198C184.06 87.1998 183.43 87.5398 182.82 87.9098C179 90.2198 175.22 92.5798 171.37 94.8398C167.52 97.0998 163.83 99.1698 160.05 101.3C156.27 103.43 152.33 105.61 148.46 107.75C145.46 109.43 142.35 111.03 139.36 112.75C137.03 114.11 134.84 115.75 132.51 117.06C128.98 119.11 125.36 120.99 121.82 123.06C118.82 124.78 115.92 126.64 112.96 128.41C112.642 128.546 112.304 128.634 111.96 128.67L111 129.45Z" fill="#B72225"/>
<path d="M111.22 233.94C110.83 234.31 110.16 234.64 110.12 235.04C110.03 236.424 110.01 237.813 110.06 239.2V341.2C109.74 340.94 109.28 340.75 109.06 340.41C108.979 340 108.979 339.579 109.06 339.17C109.06 304.55 109.06 269.936 109.06 235.33C108.989 234.976 108.989 234.613 109.06 234.26C109.26 233.83 109.6 233.26 109.94 233.19C110.28 233.12 110.8 233.68 111.22 233.94Z" fill="#E3ACA6"/>
<path d="M110 51C110 51.6 110.07 52.2 110.07 52.81C110.07 77.67 110.07 102.533 110.07 127.4C110.07 128.12 110.18 128.84 110.24 129.56C109.85 129.27 109.34 129.05 109.11 128.66C108.88 128.27 109.11 127.84 109.11 127.42C109.11 102.653 109.11 77.88 109.11 53.1C109.09 52.34 108.47 51.14 110 51Z" fill="#E1AAA5"/>
<path d="M110.08 341.26L111.93 342.26C111.09 342.34 110.18 342.53 110.08 341.26Z" fill="#E3ACA6"/>
<path d="M112 49.2695L111.14 50.0095L112 49.2695Z" fill="#E1AAA5"/>
<path d="M111 129.45L111.94 128.65L111 129.45Z" fill="#E1AAA5"/>
<path d="M27.06 292.89L27.85 293.78L27.06 292.89Z" fill="#8680AA"/>
</g>
<defs>
<clipPath id="clip0_501_2">
<rect width="391.55" height="391.55" fill="white"/>
</clipPath>
</defs>
</svg>
